<svg data-name="Calque 1" xmlns="http://www.w3.org/2000/svg" width="35" height="35" viewBox="0 0 35 35"><title>Flyers2017</title><path fill="#e30b17" d="M0 0h35v35H0z"/><path d="M4.34 20.95h-.69v2.33h.69v.91h-2.4v-.91h.69v-2.33h-.69V20h2.4zM5.33 24.18V20h.79l1.44 2.1V20h1v4.17h-.8l-1.42-2v2zM10.68 24.18V21H9.55v-1h3.26v1h-1.12v3.21zM14.81 23.2h1.75v1h-2.75V20h2.74v1h-1.74v.61h1.71v1h-1.71zM18.56 22.77v1.41h-1V20h1.62a1.39 1.39 0 0 1 .62 2.65l.88 1.35v.19h-1.09l-.87-1.41zm0-.92h.58a.43.43 0 1 0 0-.86h-.58zM21.64 24.18V20h.79l1.44 2.08V20h1v4.17h-.8l-1.42-2v2zM26.88 23.2h1.75v1h-2.75V20h2.74v1h-1.74v.61h1.71v1h-1.71zM30.72 24.18V21H29.6v-1h3.26v1h-1.12v3.21zM3.62 16.4h3v1.69H1.9v-7.16h4.72v1.69h-3v1h2.94v1.7H3.62zM13.61 11.09l-2.29 3.36 2.3 3.49v.14h-1.88l-1.41-2.18-1.4 2.18H7.05v-.14l2.29-3.49-2.26-3.32v-.2h1.84l1.4 2 1.42-2h1.86zM19.64 15.08h1.77a3.59 3.59 0 0 1-3.66 3.11 3.69 3.69 0 1 1 0-7.37 3.57 3.57 0 0 1 3.65 3.08h-1.77a2 2 0 1 0 0 1.18zM23.68 16.4h3v1.69h-4.75v-7.16h1.75zM27.19 15.78v-4.85h1.75v4.85c0 1.07 2 1.05 2 0v-4.85h1.75v4.86a2.5 2.5 0 0 1-2.77 2.4 2.49 2.49 0 0 1-2.73-2.41z" fill="#fff"/></svg>