<svg data-name="Calque 1" xmlns="http://www.w3.org/2000/svg" width="35" height="35" viewBox="0 0 35 35"><title>Flyers2017</title><path fill="#f9e400" d="M0 .01h35v34.98H0z"/><path d="M3.34 9.82v1.9H2V6.1h2.16A1.87 1.87 0 0 1 5 9.68l1.2 1.79v.26H4.74L3.56 9.82zm0-1.24h.79a.58.58 0 1 0 0-1.16h-.79zM8.09 10.4h2.33v1.33H6.71V6.1h3.7v1.33H8.09v.82h2.27v1.33H8.09zM15.29 9.36h1.39a2.82 2.82 0 0 1-2.88 2.44 2.9 2.9 0 1 1 0-5.8 2.8 2.8 0 0 1 2.87 2.43h-1.39a1.54 1.54 0 0 0-3 .48 1.54 1.54 0 0 0 3.01.45zM20.16 6a2.9 2.9 0 1 1-2.91 2.91A2.88 2.88 0 0 1 20.16 6zm1.54 2.92a1.54 1.54 0 1 0-3.07 0 1.54 1.54 0 1 0 3.07 0zM25.13 9.82v1.9h-1.37V6.1h2.18a1.87 1.87 0 0 1 .84 3.58L28 11.47v.26h-1.48l-1.17-1.9zm0-1.24h.79a.58.58 0 1 0 0-1.16h-.79zM30.61 6.1a2.7 2.7 0 0 1 2.79 2.82 2.69 2.69 0 0 1-2.79 2.8h-2.12V6.1zm0 4.31A1.41 1.41 0 0 0 32 8.92a1.43 1.43 0 0 0-1.39-1.52h-.75v3zM18.65 19.79h-2l-.33.87h-1.56l2.37-6h1l2.46 6H19zm-2.56-6.56h1.53l.53.94v.19h-1.08l-1-1zm1.12 5.08l-.05.13h1v-.1l-.46-1.29zM4.7 23.29a1.44 1.44 0 0 1 1 2.55 1.41 1.41 0 0 1 .84 1.28 1.76 1.76 0 0 1-1.81 1.82H2.09v-5.65zm-1.25 2h1c.48 0 .46-.79 0-.79h-1zm0 2.3h1.24c.58 0 .58-1 0-1H3.45zM10.35 28.11H8.42l-.31.83H6.63l2.26-5.71h1l2.35 5.71h-1.57zM9 26.69v.13h.94v-.1l-.55-1.22zM13.46 28.94v-4.36h-1.52v-1.29h4.42v1.29h-1.52v4.36zM18.42 28.94v-4.36h-1.53v-1.29h4.42v1.29h-1.52v4.36zM23.37 27v1.91H22v-5.62h2.2a1.88 1.88 0 0 1 .84 3.6l1.21 1.79v.26h-1.48L23.6 27zm0-1.25h.79a.58.58 0 1 0 0-1.16h-.79zM28.14 27.61h2.34v1.33h-3.73v-5.65h3.72v1.33h-2.33v.82h2.28v1.34h-2.28zM33.28 28.27a.74.74 0 0 1-1.48 0 .74.74 0 0 1 1.48 0zm-.06-5v4.1h-1.35v-4.1z" fill="#2d2d2b"/></svg>