<svg data-name="Calque 1" xmlns="http://www.w3.org/2000/svg" width="35" height="35" viewBox="0 0 35 35"><title>Flyers2017</title><path fill="#f9e400" d="M0 .01h35v34.98H0z"/><path d="M4.85 5.6h-1v-1h1zm-1 6.05V5.77h1v5.88zm1 .17v3.42h-1v-3.41zm2.5-6.22H5v-1h2.35a4.06 4.06 0 0 1 4.12 4.13 4.07 4.07 0 0 1-4.12 4.11H6v2.42H5v-3.43h2.35a3.08 3.08 0 0 0 3.11-3.11A3.08 3.08 0 0 0 7.35 5.6zm0 .17a2.92 2.92 0 0 1 2.94 2.94 2.92 2.92 0 0 1-2.94 2.94H5V5.77zM6 10.65h1.35a1.9 1.9 0 0 0 1.37-.55 1.84 1.84 0 0 0 .57-1.37 1.94 1.94 0 0 0-1.94-1.95H6zM13.73 5.6h-1v-1h1zm-1 6.05V5.77h1v5.88zm1 .17v3.42h-1v-3.41zm2.5-6.23H13.9v-1h2.33a4.06 4.06 0 0 1 4.12 4.13 4 4 0 0 1-.51 2 4.07 4.07 0 0 1-1.36 1.46l2.06 3.07h-1.2L17 11.74a3.1 3.1 0 0 0 2.35-3 3.08 3.08 0 0 0-3.12-3.14zm0 .17a2.93 2.93 0 0 1 2.94 2.94 2.93 2.93 0 0 1-2.94 2.94H13.9V5.77zm0 6.06a3.19 3.19 0 0 0 .58-.06l2.33 3.48h-1.2l-1.64-2.4h-1.39v2.42h-1v-3.43zm-1.32-1.18h1.32a1.88 1.88 0 0 0 1.36-.55 1.83 1.83 0 0 0 .57-1.37 1.88 1.88 0 0 0-.57-1.38 1.86 1.86 0 0 0-1.36-.57h-1.32zM26.61 4.45a5.18 5.18 0 0 1 3.84 1.61A5.32 5.32 0 0 1 32 9.93a5.33 5.33 0 0 1-1.56 3.89 5.52 5.52 0 0 1-7.75 0 5.3 5.3 0 0 1-1.58-3.88 5.26 5.26 0 0 1 1.63-3.84 5.23 5.23 0 0 1 3.87-1.65zm0 9.94a4.32 4.32 0 0 0 3.13-1.26A4.26 4.26 0 0 0 31 9.94a4.36 4.36 0 0 0-1.29-3.17 4.27 4.27 0 0 0-3.16-1.31 4.2 4.2 0 0 0-3.11 1.35 4.34 4.34 0 0 0-1.31 3.13 4.41 4.41 0 0 0 4.45 4.45zm-4.28-4.45a4.21 4.21 0 0 1 1.25-3 4 4 0 0 1 3-1.31 4.12 4.12 0 0 1 3 1.25 4.17 4.17 0 0 1 1.24 3.06 4.17 4.17 0 0 1-1.22 3 4.33 4.33 0 0 1-6.08 0 4.18 4.18 0 0 1-1.19-3zm4.28 3.27a3.16 3.16 0 0 0 3.24-3.27 3.19 3.19 0 0 0-.95-2.35 3.12 3.12 0 0 0-2.29-.95 3.15 3.15 0 0 0-2.28 1 3.15 3.15 0 0 0-1 2.32 3.21 3.21 0 0 0 3.27 3.27zM3.87 16l6.58 7.24L17 16h.13v13.45h-1.29V19.11l-5.36 6.06L5 19v10.45H3.77V16c0-.1.03-.1.1 0zm11.76 13.45h-1.25v-6.6l-4 4.37-3.93-4.3v6.53H5.23v-9.84l5.24 5.87 5.17-5.82zM25.32 16.07a6.42 6.42 0 0 1 4.76 2 6.57 6.57 0 0 1 2 4.78 6.59 6.59 0 0 1-1.94 4.82 6.46 6.46 0 0 1-4.79 2 6.5 6.5 0 0 1-4.81-2 6.74 6.74 0 0 1 .07-9.56 6.5 6.5 0 0 1 4.71-2.04zm0 12.31a5.36 5.36 0 0 0 3.87-1.56 5.29 5.29 0 0 0 1.6-4 5.39 5.39 0 0 0-1.59-3.93 5.28 5.28 0 0 0-3.92-1.62A5.2 5.2 0 0 0 21.43 19a5.38 5.38 0 0 0-1.63 3.87 5.47 5.47 0 0 0 5.51 5.51zM20 22.86a5.22 5.22 0 0 1 1.55-3.71 5 5 0 0 1 3.71-1.62A5.1 5.1 0 0 1 29 19.08a5.44 5.44 0 0 1 0 7.56 5.36 5.36 0 0 1-7.52 0A5.17 5.17 0 0 1 20 22.86zm5.3 4a3.91 3.91 0 0 0 4-4A4 4 0 0 0 28.16 20a4.07 4.07 0 0 0-6.89 2.91 4 4 0 0 0 4 4z" fill="#2d2d2b"/></svg>