<svg data-name="Calque 1" xmlns="http://www.w3.org/2000/svg" width="35" height="35" viewBox="0 0 35 35"><title>Flyers2017</title><path fill="#f3f3f3" d="M-.02 0h35.04v35H-.02z"/><path d="M10.72 15.67h2.22v1.25H9.45v-5.3h3.49v1.25h-2.22v.77h2.17v1.26h-2.17zM15.5 15.13v1.79h-1.28v-5.3h2.06a1.76 1.76 0 0 1 .78 3.38l1.14 1.68v.24h-1.38l-1.1-1.79zm0-1.17h.74a.55.55 0 1 0 0-1.09h-.74zM11.48 18.12a1.86 1.86 0 0 1 0 3.72h-.73v1.57h-1.3v-5.3zm0 2.5a.62.62 0 0 0 0-1.25h-.73v1.25zM15.5 21.62v1.79h-1.28v-5.3h2.06a1.76 1.76 0 0 1 .79 3.38l1.14 1.68v.24h-1.39l-1.1-1.79zm0-1.17h.74a.55.55 0 1 0 0-1.09h-.74zM22.06 19.3h-.88v3h.88v1.16H19v-1.2h.88v-3H19v-1.14h3.05zM27.73 18.24L26 20.73l1.7 2.58v.1h-1.35l-1-1.61-1 1.61h-1.47v-.1l1.7-2.58-1.68-2.46v-.15h1.36l1 1.51 1.05-1.51h1.38z" fill="#e30b17"/><path fill="#e30b17" d="M5.81 7.97v2.43h23.1v14.24H5.82v2.43h25.51l.01-19.1H5.81z"/><path d="M5.81 11.63a2.26 2.26 0 0 1-2.23 1.85v1.42h2.23v8.52H8.1V11.63z" fill="#e30b17"/></svg>