<svg data-name="Calque 1" xmlns="http://www.w3.org/2000/svg" width="459" height="80" viewBox="0 0 459 80"><title>ligue1-conforama</title><path fill="#dbe120" d="M0 0h459v80H0z"/><path d="M62.38 34a5.53 5.53 0 1 1-6.14-5 5.58 5.58 0 0 1 6.14 5M20.44 33.81c1.06-3.39 2.72-6.17 5-6.42 4.29-.48 9.29 6.72 10.17 15.18.81 7.82-1 16.38-5.31 16.86-2.61.29-5-.78-6.91-4.84 2.89.79 6.56-.37 6.56-.37 1.3-4.22 1.3-12 1.3-12-2.68-7.09-5.61-10.35-5.61-10.35a22.26 22.26 0 0 0-5.16 1.92" fill="#11233f"/><path d="M23.87 50.24c-1.69.21-3.38-2.31-3.77-5.61s.65-6.14 2.34-6.34 3.38 2.3 3.78 5.61-.65 6.14-2.34 6.34M72.48 32.91c-1.08-9.38-9.13-16.17-18-15.15S39.34 27.2 40.41 36.58c.93 8.07 7 14.21 14.33 15.13 0 0-.14-1.62-.34-3.23S54 45.3 54 45.3l-1.92.2a35.24 35.24 0 0 1-3.93-4.56A30.79 30.79 0 0 1 45.41 36s.82-2.9 1.89-5.57a57.45 57.45 0 0 1 2.46-5.2 51.15 51.15 0 0 1 5.24-.91c2.86-.32 5.8-.32 5.8-.32a36.52 36.52 0 0 1 3.64 4.31 43.37 43.37 0 0 1 3 5.19A25.32 25.32 0 0 1 66 38.81a35.76 35.76 0 0 1-2.91 5.44l-1.73.28s.23 1.52.34 3.08.2 3.27.2 3.27c6.92-2.54 11.45-9.91 10.53-18M69.25 18.86c-4.08-3.67-7.45-6.54-7.4-6.72a11.24 11.24 0 0 1 2.61 1.17 29.43 29.43 0 0 1 5.91 4.08 26.64 26.64 0 0 1 6.36 7.9c-.07.23-3.41-2.76-7.48-6.43M40 11.52a31.73 31.73 0 0 0-5.77 2.73 31.94 31.94 0 0 0 10.88-4A29.29 29.29 0 0 0 40 11.52M54.94 10.54c-.16-.46-3-.93-6.53-.71a5.88 5.88 0 0 1 2 .67l-7.93 3.56-9.48 2.5a2.06 2.06 0 0 1-1.19-.66c-2.46 1.88-4 3.57-4 4 .09.81 6.55-.69 14-3.26s13.34-5.29 13.07-6.06M76.26 43.89c1-6.95 2.39-12.64 3.07-12.4.42.14 2.22 6.21 1.23 13.2-.83 5.83-3.6 12-4.77 12-.72 0-.5-5.82.47-12.76M45.06 70.07c-3.49-.71-5.24-2.07-5.72-4-1.07-4.18 5.72-8 14.13-9.32 7.68-1.17 14.29 1.29 15 4.15.54 2.22-.5 4-3.43 5.94a14.53 14.53 0 0 0 .13-4.81 85.6 85.6 0 0 0-11.09-1.79c-7.31 2.76-10.51 5.29-10.51 5.29a12.39 12.39 0 0 0 1.49 4.54" fill="#11233f"/><path d="M61 66.41c.24 1.48-2.22 3.12-5.51 3.64s-6.14-.25-6.38-1.74 2.23-3.12 5.51-3.65 6.14.26 6.38 1.74M99.66 51.49V28.2h6.08v18.01h7.36v5.28H99.66zM122.91 28.2h6.08v23.29h-6.08zM151.13 27.35a11.29 11.29 0 0 1 10.51 5.84l-4.87 2.67a6.38 6.38 0 0 0-5.71-3.21c-4 0-5.78 3.24-5.78 7.48 0 3.95 1.82 7.11 6.32 7.11 2.58 0 5-2 5.16-4.13h-5.34v-4.87h11.66v1.27c0 6.91-3.19 12.83-11.91 12.83-7.42 0-12.16-5.68-12.16-12.46 0-7.15 5.33-12.53 12.11-12.53M179 28.2v14.29c0 3.11 1.9 4.2 4.19 4.2s4.14-1.17 4.14-3.89V28.2h6.14v14.9c0 5.32-3.63 9.06-10.4 9.06-5.14 0-10.15-2.67-10.15-8.39V28.2zM204.73 28.2h13.5v5.3h-7.42v3.77h7v5.16h-7v3.89h7.54v5.17h-13.62V28.2zM241.57 28.2H251v23.29h-6.09V33.2h-3.34v-5z" fill="#11233f"/><path d="M303.66 48.78c-2.6 0-4.28-2.07-4.28-5.28 0-3.37 1.66-5.47 4.32-5.47s4.1 2 4.1 5.28-1.62 5.47-4.14 5.47m0-13.65c-5.27 0-8.81 3.32-8.81 8.27 0 5.1 3.31 8.27 8.63 8.27s8.92-3.27 8.92-8.34-3.35-8.21-8.74-8.21M374.14 35.28c-4.75 0-6.69 2-6.69 6.77v.37c0 2.9-.07 6.1-.18 7.78v1H372l-.09-.94a77.95 77.95 0 0 1-.11-4.26v-3.98c.08-1.66.65-3.65 3-3.65a6.56 6.56 0 0 1 2.21.4l.24.14.48-3.13h-.17a14 14 0 0 0-3.41-.48M344.59 38.37l.44-3.08h-4.93v-1.06c.1-2.28 1-3.44 2.77-3.44a9.06 9.06 0 0 1 3.08.41l.21.06.43-3.07h-.16a18.83 18.83 0 0 0-4.18-.55c-4 0-6.38 2.35-6.57 6.63v8.5l-.07 6.9-.07 4.17v1h4.6v-1l-.11-4v-8.18-3.29zM355 48.78c-2.6 0-4.28-2.07-4.28-5.28 0-3.37 1.66-5.47 4.32-5.47s4.1 2 4.1 5.28-1.62 5.47-4.14 5.47m0-13.65c-5.27 0-8.81 3.32-8.81 8.27 0 5.1 3.31 8.27 8.63 8.27s8.92-3.27 8.92-8.34-3.35-8.21-8.74-8.21M331 47.31V42c0-4.23-2.4-6.75-6.41-6.75h-2.64c-4 0-6.41 2.52-6.41 6.74v1c0 4.14 0 5.12-.18 8v.2h4.75L320 50l-.11-3.34-.07-3.27V43a6 6 0 0 1 .49-3.1 3.48 3.48 0 0 1 5.78 0 6 6 0 0 1 .49 3.1v.38l-.07 3.27-.08 3.35v1.22H331v-1.09-2.83M425.28 47.28v-2l.07-3.31c0-2.86-.69-4.48-2.38-5.6a7.69 7.69 0 0 0-4.33-1.15 7.81 7.81 0 0 0-5.64 2.1 6.16 6.16 0 0 0-4.88-2h-2.64c-4 0-6.41 2.52-6.41 6.74V43c0 4.14 0 5.12-.18 8v.2h4.75v-1.22l-.11-3.34-.07-3.27V43a6 6 0 0 1 .49-3.1 3.48 3.48 0 0 1 5.78 0 6 6 0 0 1 .49 3.1v.38l-.22 3.3-.06 3.32v1.22h4.65v-1.09-8.36a4.58 4.58 0 0 1 .4-1.59 3.21 3.21 0 0 1 .82-1.11 3.07 3.07 0 0 1 2.09-.75 2.93 2.93 0 0 1 2.87 2 12.9 12.9 0 0 1 .21 3.38c0 2.5 0 4.2-.22 6.57l-.07.79v.21h4.78v-3.9M439.79 44.36v.39a5.17 5.17 0 0 1-.36 2.61 2 2 0 0 1-.91.86 4.68 4.68 0 0 1-2.32.49 3.3 3.3 0 0 1-2.28-.83 1.83 1.83 0 0 1-.15-2.24c.6-.92 2.05-1.3 5-1.3h1m4.23-3.21v-.33c0-2.54-.8-3.93-2.77-4.79a10.17 10.17 0 0 0-4.26-.75 22 22 0 0 0-6.13.87h-.16l.46 3.11.23-.1a12.86 12.86 0 0 1 4.87-1.07c2.52 0 3.55.91 3.55 3.15v.37c-3.54-.18-6.2 0-7.68.69-2.08.9-3.14 2.3-3.14 4.18a5.08 5.08 0 0 0 3.18 4.57c2.14.93 5.24.7 6.48.55 1-.12 4.36-.7 5.1-3.27a50.22 50.22 0 0 0 .29-7.25M390.52 44.36v.39a5.16 5.16 0 0 1-.36 2.61 2 2 0 0 1-.91.86 4.67 4.67 0 0 1-2.32.49 3.29 3.29 0 0 1-2.28-.83 1.83 1.83 0 0 1-.15-2.24c.6-.92 2.05-1.3 5-1.3h1m4.21-3.56c0-2.54-.8-3.93-2.77-4.79a10.15 10.15 0 0 0-4.26-.75 22 22 0 0 0-6.13.87h-.16l.46 3.11.23-.1a12.89 12.89 0 0 1 4.92-.99c2.52 0 3.55.91 3.55 3.15v.37c-3.54-.18-6.2 0-7.68.69-2.08.9-3.14 2.3-3.14 4.18a5.08 5.08 0 0 0 3.18 4.57c2.14.93 5.24.7 6.48.55 1-.12 4.36-.7 5.1-3.27a50.54 50.54 0 0 0 .29-7.25zM288.68 31a14.37 14.37 0 0 1 6.32 1.32l.21.09v-3.82h-.06a22.25 22.25 0 0 0-7.25-.91c-4.12.13-7.49 1.46-9.74 3.85a11.94 11.94 0 0 0-3 8.77 11.35 11.35 0 0 0 3.33 8.15c2.33 2.19 5.8 3.28 10 3.15a24.75 24.75 0 0 0 4.4-.52h.22l-1.23-3.07h-.16a14.33 14.33 0 0 1-2.46.33c-5.25.16-8.23-2.73-8.4-8.13s2.81-9.06 7.78-9.21" fill="#e30613"/></svg>